<svg xmlns="http://www.w3.org/2000/svg" xmlns:xlink="http://www.w3.org/1999/xlink" width="400" zoomAndPan="magnify" viewBox="0 0 300 299.999988" height="400" preserveAspectRatio="xMidYMid meet" version="1.0"><defs><clipPath id="c3a603e692"><path d="M 0.605469 15 L 291 15 L 291 221 L 0.605469 221 Z M 0.605469 15 " clip-rule="nonzero"/></clipPath></defs><path fill="#252525" d="M 292.5625 66.234375 L 118.703125 66.234375 C 113.042969 66.234375 109.820312 70.613281 111.5 76.023438 L 139.003906 156.628906 C 140.355469 160.980469 145.152344 164.503906 149.707031 164.503906 L 263.691406 164.503906 C 268.246094 164.503906 273.035156 160.980469 274.382812 156.628906 L 298.351562 74.121094 C 299.714844 69.773438 297.121094 66.234375 292.5625 66.234375 Z M 292.5625 66.234375 " fill-opacity="1" fill-rule="nonzero"/><path fill="#252525" d="M 160.433594 257.363281 C 160.433594 258.214844 160.390625 259.066406 160.308594 259.914062 C 160.222656 260.761719 160.097656 261.601562 159.933594 262.4375 C 159.765625 263.273438 159.558594 264.101562 159.3125 264.914062 C 159.066406 265.730469 158.777344 266.53125 158.453125 267.320312 C 158.125 268.105469 157.761719 268.875 157.363281 269.628906 C 156.960938 270.378906 156.523438 271.109375 156.050781 271.816406 C 155.578125 272.527344 155.070312 273.210938 154.527344 273.867188 C 153.988281 274.527344 153.417969 275.160156 152.816406 275.761719 C 152.210938 276.363281 151.582031 276.933594 150.925781 277.476562 C 150.265625 278.015625 149.582031 278.523438 148.875 278.996094 C 148.164062 279.46875 147.4375 279.90625 146.683594 280.308594 C 145.933594 280.710938 145.164062 281.074219 144.378906 281.402344 C 143.589844 281.726562 142.789062 282.015625 141.972656 282.261719 C 141.160156 282.507812 140.335938 282.714844 139.5 282.882812 C 138.664062 283.046875 137.820312 283.171875 136.972656 283.257812 C 136.125 283.339844 135.277344 283.382812 134.425781 283.382812 C 133.574219 283.382812 132.722656 283.339844 131.875 283.257812 C 131.027344 283.171875 130.1875 283.046875 129.351562 282.882812 C 128.515625 282.714844 127.691406 282.507812 126.875 282.261719 C 126.058594 282.015625 125.257812 281.726562 124.472656 281.402344 C 123.683594 281.074219 122.917969 280.710938 122.164062 280.308594 C 121.414062 279.90625 120.683594 279.46875 119.976562 278.996094 C 119.269531 278.523438 118.585938 278.015625 117.925781 277.476562 C 117.265625 276.933594 116.636719 276.363281 116.035156 275.761719 C 115.433594 275.160156 114.859375 274.527344 114.320312 273.867188 C 113.78125 273.210938 113.273438 272.527344 112.800781 271.816406 C 112.328125 271.109375 111.890625 270.378906 111.488281 269.628906 C 111.085938 268.875 110.722656 268.105469 110.398438 267.320312 C 110.070312 266.53125 109.785156 265.730469 109.539062 264.914062 C 109.289062 264.101562 109.082031 263.273438 108.917969 262.4375 C 108.75 261.601562 108.625 260.761719 108.542969 259.914062 C 108.460938 259.066406 108.417969 258.214844 108.417969 257.363281 C 108.417969 256.511719 108.460938 255.660156 108.542969 254.8125 C 108.625 253.964844 108.75 253.121094 108.917969 252.285156 C 109.082031 251.449219 109.289062 250.625 109.539062 249.808594 C 109.785156 248.992188 110.070312 248.191406 110.398438 247.40625 C 110.722656 246.617188 111.085938 245.847656 111.488281 245.097656 C 111.890625 244.34375 112.328125 243.613281 112.800781 242.90625 C 113.273438 242.199219 113.78125 241.515625 114.320312 240.855469 C 114.859375 240.195312 115.433594 239.566406 116.035156 238.964844 C 116.636719 238.359375 117.265625 237.789062 117.925781 237.25 C 118.585938 236.707031 119.269531 236.199219 119.976562 235.726562 C 120.683594 235.253906 121.414062 234.816406 122.164062 234.414062 C 122.917969 234.011719 123.683594 233.648438 124.472656 233.324219 C 125.257812 232.996094 126.058594 232.710938 126.875 232.460938 C 127.691406 232.214844 128.515625 232.007812 129.351562 231.84375 C 130.1875 231.675781 131.027344 231.550781 131.875 231.46875 C 132.722656 231.382812 133.574219 231.34375 134.425781 231.34375 C 135.277344 231.34375 136.125 231.382812 136.972656 231.46875 C 137.820312 231.550781 138.664062 231.675781 139.5 231.84375 C 140.335938 232.007812 141.160156 232.214844 141.972656 232.460938 C 142.789062 232.710938 143.589844 232.996094 144.378906 233.324219 C 145.164062 233.648438 145.933594 234.011719 146.683594 234.414062 C 147.4375 234.816406 148.164062 235.253906 148.875 235.726562 C 149.582031 236.199219 150.265625 236.707031 150.925781 237.25 C 151.582031 237.789062 152.210938 238.359375 152.816406 238.964844 C 153.417969 239.566406 153.988281 240.195312 154.527344 240.855469 C 155.070312 241.515625 155.578125 242.199219 156.050781 242.90625 C 156.523438 243.613281 156.960938 244.34375 157.363281 245.097656 C 157.761719 245.847656 158.125 246.617188 158.453125 247.40625 C 158.777344 248.191406 159.066406 248.992188 159.3125 249.808594 C 159.558594 250.625 159.765625 251.449219 159.933594 252.285156 C 160.097656 253.121094 160.222656 253.964844 160.308594 254.8125 C 160.390625 255.660156 160.433594 256.511719 160.433594 257.363281 Z M 160.433594 257.363281 " fill-opacity="1" fill-rule="nonzero"/><path fill="#252525" d="M 270.484375 257.691406 C 270.484375 258.542969 270.441406 259.394531 270.359375 260.242188 C 270.273438 261.089844 270.148438 261.933594 269.984375 262.769531 C 269.816406 263.605469 269.609375 264.429688 269.363281 265.246094 C 269.117188 266.0625 268.828125 266.863281 268.503906 267.648438 C 268.179688 268.4375 267.8125 269.207031 267.414062 269.957031 C 267.011719 270.710938 266.574219 271.4375 266.101562 272.148438 C 265.628906 272.855469 265.121094 273.539062 264.582031 274.199219 C 264.039062 274.859375 263.46875 275.488281 262.867188 276.089844 C 262.265625 276.695312 261.632812 277.265625 260.976562 277.804688 C 260.316406 278.347656 259.632812 278.851562 258.925781 279.328125 C 258.214844 279.800781 257.488281 280.238281 256.734375 280.640625 C 255.984375 281.042969 255.214844 281.40625 254.429688 281.730469 C 253.640625 282.058594 252.839844 282.34375 252.027344 282.589844 C 251.210938 282.839844 250.386719 283.046875 249.550781 283.210938 C 248.714844 283.378906 247.871094 283.503906 247.023438 283.585938 C 246.175781 283.671875 245.328125 283.710938 244.476562 283.710938 C 243.625 283.710938 242.773438 283.671875 241.925781 283.585938 C 241.078125 283.503906 240.238281 283.378906 239.402344 283.210938 C 238.566406 283.046875 237.742188 282.839844 236.925781 282.589844 C 236.109375 282.34375 235.308594 282.058594 234.523438 281.730469 C 233.734375 281.40625 232.96875 281.042969 232.214844 280.640625 C 231.464844 280.238281 230.734375 279.800781 230.027344 279.328125 C 229.320312 278.851562 228.636719 278.347656 227.976562 277.804688 C 227.320312 277.265625 226.6875 276.695312 226.085938 276.089844 C 225.484375 275.488281 224.910156 274.859375 224.371094 274.199219 C 223.832031 273.539062 223.324219 272.855469 222.851562 272.148438 C 222.378906 271.441406 221.941406 270.710938 221.539062 269.957031 C 221.136719 269.207031 220.773438 268.4375 220.449219 267.648438 C 220.121094 266.863281 219.835938 266.0625 219.589844 265.246094 C 219.339844 264.429688 219.132812 263.605469 218.96875 262.769531 C 218.800781 261.933594 218.675781 261.089844 218.59375 260.242188 C 218.511719 259.394531 218.46875 258.542969 218.46875 257.691406 C 218.46875 256.839844 218.511719 255.988281 218.59375 255.140625 C 218.675781 254.292969 218.800781 253.453125 218.96875 252.617188 C 219.132812 251.78125 219.339844 250.953125 219.589844 250.140625 C 219.835938 249.324219 220.121094 248.523438 220.449219 247.734375 C 220.773438 246.949219 221.136719 246.179688 221.539062 245.425781 C 221.941406 244.675781 222.378906 243.945312 222.851562 243.234375 C 223.324219 242.527344 223.832031 241.84375 224.371094 241.183594 C 224.910156 240.527344 225.484375 239.894531 226.085938 239.292969 C 226.6875 238.691406 227.320312 238.121094 227.976562 237.578125 C 228.636719 237.039062 229.320312 236.53125 230.027344 236.058594 C 230.734375 235.585938 231.464844 235.144531 232.214844 234.746094 C 232.96875 234.34375 233.734375 233.980469 234.523438 233.652344 C 235.308594 233.328125 236.109375 233.039062 236.925781 232.792969 C 237.742188 232.546875 238.566406 232.339844 239.402344 232.171875 C 240.238281 232.007812 241.078125 231.882812 241.925781 231.796875 C 242.773438 231.714844 243.625 231.671875 244.476562 231.671875 C 245.328125 231.671875 246.175781 231.714844 247.023438 231.796875 C 247.871094 231.882812 248.714844 232.007812 249.550781 232.171875 C 250.386719 232.339844 251.210938 232.546875 252.027344 232.792969 C 252.839844 233.039062 253.640625 233.328125 254.429688 233.652344 C 255.214844 233.980469 255.984375 234.34375 256.734375 234.746094 C 257.488281 235.144531 258.214844 235.582031 258.925781 236.058594 C 259.632812 236.53125 260.316406 237.039062 260.976562 237.578125 C 261.632812 238.121094 262.265625 238.691406 262.867188 239.292969 C 263.46875 239.894531 264.039062 240.527344 264.578125 241.183594 C 265.121094 241.84375 265.628906 242.527344 266.101562 243.234375 C 266.574219 243.945312 267.011719 244.675781 267.414062 245.425781 C 267.8125 246.179688 268.179688 246.949219 268.503906 247.734375 C 268.828125 248.523438 269.117188 249.324219 269.363281 250.140625 C 269.609375 250.953125 269.816406 251.78125 269.984375 252.617188 C 270.148438 253.453125 270.273438 254.292969 270.359375 255.140625 C 270.441406 255.988281 270.484375 256.839844 270.484375 257.691406 Z M 270.484375 257.691406 " fill-opacity="1" fill-rule="nonzero"/><g clip-path="url(#c3a603e692)"><path fill="#252525" d="M 275.703125 190.984375 L 123.597656 190.984375 L 62.707031 15.691406 L 15.289062 15.691406 C 7.15625 15.691406 0.5625 22.289062 0.5625 30.425781 C 0.5625 38.566406 7.15625 45.160156 15.289062 45.160156 L 41.757812 45.160156 L 102.648438 220.449219 L 275.703125 220.449219 C 283.839844 220.449219 290.429688 213.855469 290.429688 205.71875 C 290.429688 197.578125 283.835938 190.984375 275.703125 190.984375 Z M 275.703125 190.984375 " fill-opacity="1" fill-rule="nonzero"/></g></svg>