<svg xmlns="http://www.w3.org/2000/svg" xmlns:xlink="http://www.w3.org/1999/xlink" width="500" zoomAndPan="magnify" viewBox="0 0 375 374.999991" height="500" preserveAspectRatio="xMidYMid meet" version="1.0"><defs><clipPath id="684955ec5d"><path d="M 163 249 L 179 249 L 179 267 L 163 267 Z M 163 249 " clip-rule="nonzero"/></clipPath><clipPath id="057ad50e74"><path d="M 164.257812 249.617188 L 179.730469 250.65625 L 178.574219 267.847656 L 163.101562 266.808594 Z M 164.257812 249.617188 " clip-rule="nonzero"/></clipPath><clipPath id="12f391a5e1"><path d="M 164.257812 249.617188 L 178.304688 250.558594 L 177.234375 266.507812 L 163.1875 265.5625 Z M 164.257812 249.617188 " clip-rule="nonzero"/></clipPath><clipPath id="4e42384102"><path d="M 196 161 L 262 161 L 262 192 L 196 192 Z M 196 161 " clip-rule="nonzero"/></clipPath><clipPath id="63c80d95d3"><path d="M 197.898438 159.429688 L 263.425781 163.285156 L 261.734375 192 L 196.207031 188.144531 Z M 197.898438 159.429688 " clip-rule="nonzero"/></clipPath><clipPath id="c8aca88c38"><path d="M 230.464844 161.34375 L 261.367188 191.566406 L 196.234375 187.734375 L 230.464844 161.34375 " clip-rule="nonzero"/></clipPath><clipPath id="68241f52d7"><path d="M 111 166 L 177 166 L 177 201 L 111 201 Z M 111 166 " clip-rule="nonzero"/></clipPath><clipPath id="4f1035ad49"><path d="M 113.777344 164.367188 L 178.695312 168.191406 L 176.722656 201.746094 L 111.800781 197.921875 Z M 113.777344 164.367188 " clip-rule="nonzero"/></clipPath><clipPath id="e6ab3e00c9"><path d="M 146.039062 166.269531 L 176.363281 201.199219 L 111.832031 197.402344 L 146.039062 166.269531 " clip-rule="nonzero"/></clipPath><clipPath id="97e1356202"><path d="M 168 176 L 198 176 L 198 192 L 168 192 Z M 168 176 " clip-rule="nonzero"/></clipPath><clipPath id="361191e1a8"><path d="M 168.257812 177.296875 L 196.726562 175.957031 L 197.414062 190.554688 L 168.945312 191.894531 Z M 168.257812 177.296875 " clip-rule="nonzero"/></clipPath><clipPath id="80f4015003"><path d="M 182.386719 176.632812 L 197.183594 190.234375 L 168.929688 191.566406 L 182.386719 176.632812 " clip-rule="nonzero"/></clipPath><clipPath id="197a3d20fc"><path d="M 85.851562 92.265625 L 279.53125 92.265625 L 279.53125 233.703125 L 85.851562 233.703125 Z M 85.851562 92.265625 " clip-rule="nonzero"/></clipPath><clipPath id="b3f3bfeb14"><path d="M 85.851562 147 L 279.53125 147 L 279.53125 233.703125 L 85.851562 233.703125 Z M 85.851562 147 " clip-rule="nonzero"/></clipPath><clipPath id="557715bfef"><path d="M 78.585938 179.117188 L 304.117188 179.117188 L 304.117188 344.765625 L 78.585938 344.765625 Z M 78.585938 179.117188 " clip-rule="nonzero"/></clipPath><clipPath id="88c9f9bdb4"><path d="M 23 263.070312 L 101.519531 263.070312 L 101.519531 344.601562 L 23 344.601562 Z M 23 263.070312 " clip-rule="nonzero"/></clipPath><clipPath id="bb04949435"><path d="M 62.46875 263.070312 L 23.417969 344.601562 L 101.519531 344.601562 L 62.46875 263.070312 " clip-rule="nonzero"/></clipPath><clipPath id="2526f18df8"><path d="M 277 272 L 350.046875 272 L 350.046875 344.601562 L 277 344.601562 Z M 277 272 " clip-rule="nonzero"/></clipPath><clipPath id="6a830280a8"><path d="M 313.730469 272.28125 L 277.417969 344.601562 L 350.046875 344.601562 L 313.730469 272.28125 " clip-rule="nonzero"/></clipPath><clipPath id="6a5567482e"><path d="M 10 6 L 191 6 L 191 369 L 10 369 Z M 10 6 " clip-rule="nonzero"/></clipPath><clipPath id="2d630deff7"><path d="M 175.402344 0 L 191.644531 7.371094 L 24.710938 375.183594 L 8.46875 367.808594 Z M 175.402344 0 " clip-rule="nonzero"/></clipPath><clipPath id="8f67879f83"><path d="M 175.402344 0 L 191.644531 7.371094 L 24.710938 375.183594 L 8.46875 367.808594 Z M 175.402344 0 " clip-rule="nonzero"/></clipPath><clipPath id="bb5cbed489"><path d="M 175.402344 0 L 191.644531 7.371094 L 24.710938 375.183594 L 8.46875 367.808594 Z M 175.402344 0 " clip-rule="nonzero"/></clipPath><clipPath id="34c1ec0e4a"><path d="M 180 6 L 366 6 L 366 369 L 180 369 Z M 180 6 " clip-rule="nonzero"/></clipPath><clipPath id="e40d9e80b5"><path d="M 179.128906 7.472656 L 195.296875 -0.0664062 L 366.554688 367.15625 L 350.386719 374.695312 Z M 179.128906 7.472656 " clip-rule="nonzero"/></clipPath><clipPath id="ea4840e70e"><path d="M 350.453125 374.839844 L 366.621094 367.300781 L 195.363281 0.078125 L 179.195312 7.617188 Z M 350.453125 374.839844 " clip-rule="nonzero"/></clipPath><clipPath id="ae575371a7"><path d="M 350.453125 374.839844 L 366.621094 367.300781 L 195.363281 0.078125 L 179.195312 7.617188 Z M 350.453125 374.839844 " clip-rule="nonzero"/></clipPath><clipPath id="8199a86a41"><path d="M 150 289 L 164 289 L 164 303 L 150 303 Z M 150 289 " clip-rule="nonzero"/></clipPath><clipPath id="6bf9dea5e3"><path d="M 143.117188 241.078125 L 213.042969 245.78125 L 208.9375 306.804688 L 139.015625 302.101562 Z M 143.117188 241.078125 " clip-rule="nonzero"/></clipPath><clipPath id="fb0093a7fb"><path d="M 213.597656 245.820312 L 143.675781 241.117188 L 139.570312 302.140625 L 209.492188 306.84375 Z M 213.597656 245.820312 " clip-rule="nonzero"/></clipPath><clipPath id="f07be6ac9e"><path d="M 164.582031 289.386719 L 150.34375 288.429688 L 149.378906 302.8125 L 163.613281 303.769531 Z M 164.582031 289.386719 " clip-rule="nonzero"/></clipPath><clipPath id="3148af7ed3"><path d="M 164.582031 289.386719 L 150.34375 288.429688 L 149.394531 302.574219 L 163.628906 303.535156 Z M 164.582031 289.386719 " clip-rule="nonzero"/></clipPath><clipPath id="c031bda1ca"><path d="M 189 292 L 204 292 L 204 306 L 189 306 Z M 189 292 " clip-rule="nonzero"/></clipPath><clipPath id="aee80e82bd"><path d="M 143.117188 241.078125 L 213.042969 245.78125 L 208.9375 306.804688 L 139.015625 302.101562 Z M 143.117188 241.078125 " clip-rule="nonzero"/></clipPath><clipPath id="d927cb8122"><path d="M 213.597656 245.820312 L 143.675781 241.117188 L 139.570312 302.140625 L 209.492188 306.84375 Z M 213.597656 245.820312 " clip-rule="nonzero"/></clipPath><clipPath id="cf32f5890b"><path d="M 204.132812 292.046875 L 189.894531 291.089844 L 188.925781 305.472656 L 203.164062 306.429688 Z M 204.132812 292.046875 " clip-rule="nonzero"/></clipPath><clipPath id="a618ad2288"><path d="M 204.132812 292.046875 L 189.894531 291.089844 L 188.941406 305.234375 L 203.179688 306.195312 Z M 204.132812 292.046875 " clip-rule="nonzero"/></clipPath><clipPath id="b8979ab513"><path d="M 140 267 L 211 267 L 211 299 L 140 299 Z M 140 267 " clip-rule="nonzero"/></clipPath><clipPath id="fed99e00d3"><path d="M 143.117188 241.078125 L 213.042969 245.78125 L 208.9375 306.804688 L 139.015625 302.101562 Z M 143.117188 241.078125 " clip-rule="nonzero"/></clipPath><clipPath id="8af31e236d"><path d="M 213.597656 245.820312 L 143.675781 241.117188 L 139.570312 302.140625 L 209.492188 306.84375 Z M 213.597656 245.820312 " clip-rule="nonzero"/></clipPath><clipPath id="7b1a4fc894"><path d="M 150 243 L 190 243 L 190 268 L 150 268 Z M 150 243 " clip-rule="nonzero"/></clipPath><clipPath id="90cd43d7e9"><path d="M 143.117188 241.078125 L 213.042969 245.78125 L 208.9375 306.804688 L 139.015625 302.101562 Z M 143.117188 241.078125 " clip-rule="nonzero"/></clipPath><clipPath id="3b5ab92981"><path d="M 213.597656 245.820312 L 143.675781 241.117188 L 139.570312 302.140625 L 209.492188 306.84375 Z M 213.597656 245.820312 " clip-rule="nonzero"/></clipPath></defs><g clip-path="url(#684955ec5d)"><g clip-path="url(#057ad50e74)"><g clip-path="url(#12f391a5e1)"><path fill="#ff6a1a" d="M 164.257812 249.617188 L 178.011719 250.539062 L 176.96875 266.011719 L 163.21875 265.085938 Z M 164.257812 249.617188 " fill-opacity="1" fill-rule="nonzero"/></g></g></g><g clip-path="url(#4e42384102)"><g clip-path="url(#63c80d95d3)"><g clip-path="url(#c8aca88c38)"><path fill="#ffffff" d="M 197.898438 159.429688 L 262.6875 163.242188 L 261.042969 191.21875 L 196.25 187.40625 Z M 197.898438 159.429688 " fill-opacity="1" fill-rule="nonzero"/></g></g></g><g clip-path="url(#68241f52d7)"><g clip-path="url(#4f1035ad49)"><g clip-path="url(#e6ab3e00c9)"><path fill="#ffffff" d="M 113.777344 164.367188 L 177.96875 168.148438 L 176.035156 200.972656 L 111.84375 197.195312 Z M 113.777344 164.367188 " fill-opacity="1" fill-rule="nonzero"/></g></g></g><g clip-path="url(#97e1356202)"><g clip-path="url(#361191e1a8)"><g clip-path="url(#80f4015003)"><path fill="#ffffff" d="M 168.257812 177.296875 L 196.726562 175.957031 L 197.414062 190.554688 L 168.945312 191.894531 Z M 168.257812 177.296875 " fill-opacity="1" fill-rule="nonzero"/></g></g></g><g clip-path="url(#197a3d20fc)"><path fill="#000000" d="M 212.78125 -3.765625 C 95.445312 -3.765625 -0.0117188 91.691406 -0.0117188 209.023438 C -0.0117188 326.355469 95.445312 421.816406 212.78125 421.816406 C 330.113281 421.816406 425.570312 326.355469 425.570312 209.023438 C 425.570312 91.691406 330.113281 -3.765625 212.78125 -3.765625 Z M 212.78125 410.449219 C 101.695312 410.449219 11.351562 320.105469 11.351562 209.023438 C 11.351562 97.941406 101.695312 7.597656 212.78125 7.597656 C 323.863281 7.597656 414.207031 97.941406 414.207031 209.023438 C 414.207031 320.105469 323.863281 410.449219 212.78125 410.449219 Z M 212.78125 410.449219 " fill-opacity="1" fill-rule="nonzero"/></g><g clip-path="url(#b3f3bfeb14)"><path fill="#000000" d="M 395.171875 258.742188 L 305.964844 174.363281 L 278.972656 193.96875 L 231.246094 147.375 L 196.585938 175.214844 L 182.949219 161.863281 L 168.460938 179.195312 L 147.71875 158.453125 L 30.671875 253.628906 C 28.113281 255.617188 27.832031 259.308594 29.820312 261.582031 C 30.957031 263.003906 32.660156 263.570312 34.363281 263.570312 C 35.5 263.570312 36.921875 263.285156 38.058594 262.433594 L 147.152344 173.511719 L 190.050781 217.832031 C 192.324219 220.105469 195.734375 220.105469 198.007812 217.832031 C 200.277344 215.558594 200.277344 212.148438 198.007812 209.875 L 176.128906 187.714844 L 183.515625 178.910156 L 213.0625 207.886719 C 214.199219 209.023438 215.621094 209.59375 217.039062 209.59375 C 218.460938 209.59375 219.882812 209.023438 221.019531 207.886719 C 223.292969 205.613281 223.292969 202.207031 221.019531 199.933594 L 204.539062 183.738281 L 230.394531 163 L 301.132812 231.183594 C 302.269531 232.320312 303.691406 232.886719 305.113281 232.886719 C 306.53125 232.886719 307.953125 232.320312 309.089844 231.183594 C 311.363281 228.910156 311.363281 225.21875 309.089844 223.230469 L 287.496094 202.207031 L 305.394531 189.421875 L 387.785156 267.265625 C 388.921875 268.402344 390.339844 268.683594 391.761719 268.683594 C 393.183594 268.683594 394.886719 268.117188 396.023438 266.980469 C 397.445312 264.421875 397.445312 260.730469 395.171875 258.742188 Z M 395.171875 258.742188 " fill-opacity="1" fill-rule="nonzero"/></g><g clip-path="url(#557715bfef)"><path fill="#022417" d="M 413.949219 298.429688 C 413.949219 298.429688 393.910156 311.484375 390.90625 306.792969 C 389.886719 305.210938 381.835938 303.738281 371.613281 302.503906 C 370.996094 296.527344 370.378906 278.488281 371.667969 280.46875 C 372.957031 282.480469 385.726562 281.382812 390.261719 281.113281 C 390.90625 281.085938 391.496094 280.230469 391.039062 279.746094 C 385.457031 273.902344 377.945312 249.726562 378.75 251.816406 C 379.339844 253.371094 386.851562 253.960938 391.601562 252.835938 C 392.515625 252.621094 390.125 250.34375 389.269531 249.964844 C 379.957031 245.945312 370.085938 230.453125 374.027344 232.328125 C 377.007812 233.75 382.132812 233.105469 385.164062 232.515625 C 385.941406 232.355469 386.183594 231.3125 385.566406 230.800781 C 380.628906 226.96875 372.152344 215.09375 369.144531 210.722656 C 368.714844 210.082031 369.171875 209.167969 369.925781 209.195312 C 374.027344 209.332031 383.015625 209.167969 377.570312 204.585938 C 371.988281 199.894531 365.738281 178.183594 363.511719 169.875 C 363.269531 168.960938 362.035156 168.988281 361.792969 169.929688 L 356.269531 190.726562 L 351.4375 209.410156 C 351.222656 210.269531 352.109375 210.914062 352.808594 210.429688 L 357.582031 207.9375 C 358.332031 207.402344 359.996094 206.703125 359.621094 207.589844 L 357.046875 213.566406 C 357.046875 213.59375 357.019531 213.621094 357.019531 213.621094 L 345.9375 234.929688 C 345.507812 235.761719 346.367188 236.671875 347.144531 236.1875 C 351.117188 233.804688 357.929688 230.105469 357.90625 232.890625 C 357.878906 235.949219 346.824219 251.546875 342.019531 258.140625 C 341.566406 257.632812 340.894531 257.070312 340.546875 256.910156 C 333.25 253.746094 325.496094 241.578125 328.578125 243.050781 C 330.914062 244.175781 334.9375 243.640625 337.324219 243.183594 C 337.941406 243.078125 338.132812 242.21875 337.648438 241.84375 C 333.757812 238.84375 327.132812 229.515625 324.769531 226.082031 C 324.421875 225.574219 324.796875 224.878906 325.386719 224.878906 C 328.605469 224.984375 335.664062 224.851562 331.398438 221.257812 C 326.996094 217.585938 322.113281 200.539062 320.371094 194 C 320.183594 193.273438 319.214844 193.300781 319.027344 194.023438 L 314.683594 210.347656 L 310.898438 225.011719 C 310.738281 225.679688 311.410156 226.191406 311.972656 225.816406 L 315.726562 223.859375 C 316.320312 223.429688 317.632812 222.894531 317.339844 223.589844 L 315.324219 228.28125 C 315.324219 228.308594 315.300781 228.308594 315.300781 228.335938 L 306.605469 245.0625 C 306.257812 245.730469 306.929688 246.429688 307.546875 246.054688 C 310.65625 244.175781 315.996094 241.28125 315.96875 243.453125 C 315.941406 245.917969 306.847656 258.652344 303.253906 263.609375 C 302.824219 264.199219 303.359375 265.003906 304.003906 264.761719 C 307.410156 263.558594 313.554688 261.679688 312.964844 264.039062 C 311.625 269.453125 306.285156 279.183594 304.78125 281.835938 C 304.539062 282.265625 304.753906 283.097656 305.15625 282.9375 C 309.234375 281.410156 314.359375 281.648438 316.722656 280.792969 C 317.175781 280.632812 317.632812 280.953125 317.632812 281.460938 L 317.902344 298.910156 C 312.347656 299.449219 303.09375 300.359375 292.84375 301.378906 C 292.519531 298.722656 292.144531 288.804688 292.84375 289.851562 C 293.488281 290.871094 300.007812 290.308594 302.285156 290.171875 C 302.609375 290.148438 302.902344 289.71875 302.6875 289.476562 C 299.84375 286.5 296.035156 274.199219 296.4375 275.269531 C 296.734375 276.046875 300.570312 276.34375 302.984375 275.78125 C 303.441406 275.671875 302.234375 274.519531 301.804688 274.332031 C 297.082031 272.296875 292.066406 264.414062 294.050781 265.351562 C 295.578125 266.078125 298.183594 265.753906 299.710938 265.433594 C 300.113281 265.351562 300.246094 264.816406 299.925781 264.574219 C 297.402344 262.617188 293.109375 256.585938 291.582031 254.363281 C 291.367188 254.039062 291.582031 253.585938 291.984375 253.585938 C 294.078125 253.664062 298.636719 253.558594 295.875 251.226562 C 293.03125 248.839844 289.863281 237.796875 288.710938 233.5625 C 288.578125 233.105469 287.960938 233.105469 287.824219 233.589844 L 285.007812 244.175781 L 282.566406 253.691406 C 282.460938 254.121094 282.917969 254.46875 283.265625 254.203125 L 285.707031 252.914062 C 286.082031 252.648438 286.941406 252.296875 286.753906 252.726562 L 285.4375 255.757812 C 285.4375 255.757812 285.4375 255.785156 285.410156 255.785156 L 279.777344 266.613281 C 279.5625 267.042969 279.992188 267.496094 280.394531 267.253906 C 282.40625 266.050781 285.867188 264.171875 285.867188 265.566406 C 285.839844 267.175781 279.964844 275.429688 277.628906 278.621094 C 277.363281 278.996094 277.683594 279.503906 278.113281 279.371094 C 280.3125 278.59375 284.3125 277.386719 283.9375 278.914062 C 283.078125 282.425781 279.617188 288.726562 278.625 290.441406 C 278.460938 290.710938 278.597656 291.246094 278.863281 291.136719 C 281.492188 290.148438 284.847656 290.308594 286.351562 289.746094 C 286.644531 289.636719 286.941406 289.851562 286.941406 290.171875 L 287.128906 301.832031 C 279 302.636719 270.574219 303.496094 263.144531 304.246094 C 262.902344 300.359375 262.765625 294.113281 263.332031 294.945312 C 264 295.964844 270.546875 295.425781 272.855469 295.265625 C 273.175781 295.238281 273.5 294.8125 273.257812 294.570312 C 270.386719 291.566406 266.523438 279.15625 266.953125 280.257812 C 267.246094 281.058594 271.109375 281.355469 273.550781 280.792969 C 274.007812 280.683594 272.800781 279.503906 272.34375 279.316406 C 267.570312 277.253906 262.5 269.292969 264.539062 270.257812 C 266.066406 270.980469 268.695312 270.660156 270.253906 270.363281 C 270.65625 270.285156 270.789062 269.75 270.46875 269.480469 C 267.917969 267.523438 263.597656 261.414062 262.042969 259.1875 C 261.828125 258.867188 262.042969 258.382812 262.445312 258.410156 C 264.566406 258.492188 269.179688 258.382812 266.363281 256.050781 C 263.492188 253.640625 260.296875 242.515625 259.144531 238.253906 C 259.011719 237.769531 258.394531 237.796875 258.257812 238.28125 L 255.414062 248.949219 L 252.949219 258.542969 C 252.839844 258.972656 253.296875 259.320312 253.644531 259.054688 L 256.085938 257.765625 C 256.460938 257.5 257.320312 257.125 257.132812 257.578125 L 255.816406 260.636719 C 255.816406 260.636719 255.816406 260.660156 255.792969 260.660156 L 250.105469 271.597656 C 249.890625 272.027344 250.316406 272.484375 250.722656 272.242188 C 252.757812 271.007812 256.246094 269.132812 256.222656 270.550781 C 256.195312 272.160156 250.265625 280.496094 247.902344 283.714844 C 247.636719 284.089844 247.957031 284.625 248.386719 284.464844 C 250.613281 283.6875 254.609375 282.453125 254.234375 283.980469 C 253.375 287.519531 249.863281 293.871094 248.894531 295.613281 C 248.734375 295.882812 248.871094 296.417969 249.136719 296.339844 C 251.792969 295.347656 255.148438 295.507812 256.703125 294.945312 C 257 294.835938 257.292969 295.050781 257.292969 295.375 L 257.453125 304.808594 C 249.675781 305.613281 243.636719 306.285156 241.195312 306.605469 C 240.472656 306.710938 239.15625 306.738281 237.332031 306.738281 C 237.117188 304.246094 236.902344 298.027344 237.386719 298.75 C 237.871094 299.5 242.671875 299.097656 244.363281 298.992188 C 244.605469 298.964844 244.816406 298.644531 244.65625 298.484375 C 242.566406 296.285156 239.71875 287.199219 240.042969 287.976562 C 240.257812 288.566406 243.101562 288.78125 244.871094 288.351562 C 245.21875 288.269531 244.308594 287.414062 243.988281 287.277344 C 240.5 285.777344 236.769531 279.933594 238.273438 280.65625 C 239.398438 281.195312 241.304688 280.953125 242.457031 280.738281 C 242.753906 280.683594 242.832031 280.28125 242.617188 280.09375 C 240.765625 278.648438 237.574219 274.199219 236.449219 272.5625 C 236.285156 272.320312 236.449219 271.972656 236.742188 272 C 238.296875 272.054688 241.679688 272 239.613281 270.257812 C 237.519531 268.488281 235.160156 260.339844 234.328125 257.203125 C 234.246094 256.855469 233.765625 256.882812 233.683594 257.230469 L 231.617188 265.058594 L 229.792969 272.082031 C 229.714844 272.402344 230.035156 272.644531 230.304688 272.457031 L 232.101562 271.515625 C 232.394531 271.304688 233.011719 271.0625 232.878906 271.382812 L 231.914062 273.636719 C 231.914062 273.636719 231.914062 273.660156 231.914062 273.660156 L 227.753906 281.675781 C 227.59375 282 227.914062 282.320312 228.210938 282.160156 C 229.6875 281.273438 232.261719 279.878906 232.261719 280.925781 C 232.261719 282.105469 227.890625 288.21875 226.171875 290.574219 C 225.957031 290.84375 226.226562 291.246094 226.546875 291.136719 C 228.183594 290.550781 231.109375 289.664062 230.839844 290.789062 C 230.195312 293.390625 227.648438 298.027344 226.921875 299.3125 C 226.816406 299.527344 226.894531 299.902344 227.109375 299.824219 C 229.070312 299.097656 231.511719 299.207031 232.636719 298.804688 C 232.851562 298.722656 233.066406 298.886719 233.066406 299.125 L 233.175781 306.710938 C 208.140625 305.933594 136.613281 300.386719 115.929688 298.75 C 115.6875 296.554688 115.445312 289.691406 115.929688 290.441406 C 116.414062 291.191406 121.214844 290.789062 122.90625 290.683594 C 123.148438 290.65625 123.359375 290.335938 123.199219 290.171875 C 121.109375 287.976562 118.261719 278.890625 118.585938 279.667969 C 118.800781 280.257812 121.644531 280.46875 123.414062 280.042969 C 123.761719 279.960938 122.851562 279.101562 122.53125 278.96875 C 119.042969 277.46875 115.3125 271.625 116.816406 272.347656 C 117.941406 272.882812 119.847656 272.644531 121 272.429688 C 121.296875 272.375 121.375 271.972656 121.160156 271.785156 C 119.308594 270.339844 116.117188 265.886719 114.992188 264.226562 C 114.828125 263.984375 114.992188 263.636719 115.285156 263.664062 C 116.839844 263.71875 120.222656 263.664062 118.15625 261.921875 C 116.0625 260.152344 113.703125 252.003906 112.871094 248.867188 C 112.789062 248.519531 112.308594 248.546875 112.226562 248.894531 L 110.160156 256.722656 L 108.335938 263.746094 C 108.257812 264.066406 108.578125 264.308594 108.847656 264.121094 L 110.644531 263.179688 C 110.9375 262.96875 111.554688 262.726562 111.421875 263.046875 L 110.457031 265.300781 C 110.457031 265.300781 110.457031 265.324219 110.457031 265.324219 L 106.296875 273.339844 C 106.136719 273.660156 106.457031 273.984375 106.753906 273.824219 C 108.230469 272.9375 110.804688 271.542969 110.804688 272.589844 C 110.804688 273.769531 106.433594 279.878906 104.714844 282.238281 C 104.5 282.507812 104.769531 282.910156 105.089844 282.800781 C 106.726562 282.210938 109.652344 281.328125 109.382812 282.453125 C 108.738281 285.054688 106.191406 289.691406 105.464844 290.976562 C 105.359375 291.191406 105.4375 291.566406 105.652344 291.488281 C 107.613281 290.761719 110.054688 290.871094 111.179688 290.46875 C 111.394531 290.386719 111.609375 290.550781 111.609375 290.789062 L 111.742188 298.457031 C 110.804688 298.375 110.320312 298.347656 110.320312 298.347656 C 110.320312 298.347656 103.105469 299.449219 92.050781 301.03125 C 92.210938 300.519531 92.320312 300.011719 92.292969 299.875 C 91.945312 297.546875 91.566406 287.089844 92.265625 288.164062 C 92.910156 289.183594 99.429688 288.617188 101.710938 288.484375 C 102.03125 288.457031 102.328125 288.027344 102.113281 287.789062 C 99.269531 284.8125 95.457031 272.507812 95.859375 273.582031 C 96.15625 274.359375 99.992188 274.652344 102.40625 274.089844 C 102.863281 273.984375 101.65625 272.832031 101.226562 272.644531 C 96.503906 270.605469 91.488281 262.726562 93.472656 263.664062 C 95.003906 264.386719 97.605469 264.066406 99.132812 263.746094 C 99.535156 263.664062 99.671875 263.128906 99.347656 262.886719 C 96.828125 260.929688 92.535156 254.898438 91.003906 252.675781 C 90.789062 252.351562 91.003906 251.898438 91.40625 251.898438 C 93.5 251.976562 98.0625 251.871094 95.296875 249.539062 C 92.453125 247.152344 89.289062 236.109375 88.132812 231.875 C 88 231.417969 87.382812 231.417969 87.25 231.898438 L 84.269531 242.59375 L 81.828125 252.109375 C 81.722656 252.539062 82.179688 252.886719 82.527344 252.621094 L 84.96875 251.332031 C 85.34375 251.066406 86.203125 250.71875 86.015625 251.144531 L 84.699219 254.175781 C 84.699219 254.175781 84.699219 254.203125 84.671875 254.203125 L 79.039062 265.03125 C 78.824219 265.460938 79.253906 265.914062 79.65625 265.675781 C 81.667969 264.46875 85.128906 262.589844 85.128906 263.984375 C 85.101562 265.59375 79.226562 273.847656 76.890625 277.039062 C 76.625 277.414062 76.945312 277.925781 77.375 277.789062 C 79.574219 277.011719 83.574219 275.804688 83.199219 277.335938 C 82.339844 280.84375 78.878906 287.144531 77.886719 288.859375 C 77.722656 289.128906 77.859375 289.664062 78.125 289.558594 C 80.757812 288.566406 84.082031 288.726562 85.613281 288.164062 C 85.90625 288.054688 86.203125 288.269531 86.203125 288.59375 L 86.390625 301.21875 C 86.390625 301.511719 86.660156 301.726562 86.925781 301.671875 L 87.167969 301.699219 C 79.523438 302.773438 70.535156 304.003906 61.007812 305.265625 C 61.089844 304.917969 61.144531 304.621094 61.117188 304.539062 C 60.605469 300.921875 59.988281 284.8125 61.0625 286.476562 C 62.082031 288.054688 72.089844 287.199219 75.660156 286.984375 C 76.167969 286.957031 76.625 286.285156 76.277344 285.910156 C 71.902344 281.328125 66 262.351562 66.617188 263.984375 C 67.074219 265.191406 72.976562 265.648438 76.703125 264.789062 C 77.429688 264.628906 75.550781 262.832031 74.878906 262.539062 C 67.582031 259.375 59.828125 247.207031 62.914062 248.679688 C 65.25 249.804688 69.273438 249.269531 71.660156 248.8125 C 72.277344 248.707031 72.464844 247.847656 71.984375 247.472656 C 68.09375 244.472656 61.464844 235.144531 59.105469 231.710938 C 58.757812 231.203125 59.132812 230.507812 59.722656 230.507812 C 62.941406 230.613281 69.996094 230.480469 65.730469 226.886719 C 61.332031 223.214844 56.449219 206.167969 54.703125 199.628906 C 54.515625 198.902344 53.550781 198.929688 53.363281 199.652344 L 49.015625 215.976562 L 45.234375 230.640625 C 45.074219 231.3125 45.742188 231.820312 46.308594 231.445312 L 50.0625 229.488281 C 50.652344 229.058594 51.96875 228.523438 51.671875 229.21875 L 49.660156 233.910156 C 49.660156 233.9375 49.632812 233.9375 49.632812 233.964844 L 40.941406 250.691406 C 40.59375 251.359375 41.261719 252.058594 41.878906 251.683594 C 44.992188 249.804688 50.332031 246.910156 50.304688 249.082031 C 50.277344 251.546875 41.183594 264.28125 37.585938 269.238281 C 37.15625 269.828125 37.695312 270.632812 38.339844 270.390625 C 41.746094 269.1875 47.890625 267.308594 47.300781 269.667969 C 45.957031 275.082031 40.621094 284.8125 39.117188 287.464844 C 38.875 287.894531 39.089844 288.726562 39.492188 288.566406 C 43.570312 287.039062 48.695312 287.277344 51.054688 286.421875 C 51.511719 286.261719 51.96875 286.582031 51.96875 287.089844 L 52.261719 306.335938 C 40.296875 307.839844 27.929688 309.3125 16.742188 310.410156 C 17.089844 309.257812 17.386719 308 17.359375 307.703125 C 16.6875 303.121094 15.9375 282.589844 17.277344 284.707031 C 18.566406 286.714844 31.335938 285.617188 35.871094 285.347656 C 36.515625 285.320312 37.105469 284.464844 36.648438 283.980469 C 31.066406 278.136719 23.554688 253.960938 24.359375 256.050781 C 24.949219 257.605469 32.464844 258.195312 37.210938 257.070312 C 38.125 256.855469 35.734375 254.578125 34.878906 254.203125 C 25.566406 250.179688 15.695312 234.6875 19.636719 236.5625 C 22.617188 237.984375 27.742188 237.339844 30.773438 236.75 C 31.550781 236.589844 31.792969 235.546875 31.175781 235.035156 C 26.238281 231.203125 17.761719 219.328125 14.753906 214.960938 C 14.328125 214.316406 14.78125 213.40625 15.535156 213.433594 C 19.636719 213.566406 28.625 213.40625 23.179688 208.820312 C 17.597656 204.128906 11.347656 182.417969 9.121094 174.109375 C 8.878906 173.199219 7.644531 173.226562 7.40625 174.164062 L 1.878906 194.964844 L -2.953125 213.644531 C -3.167969 214.503906 -2.28125 215.148438 -1.582031 214.664062 L 3.191406 212.171875 C 3.941406 211.636719 5.605469 210.9375 5.230469 211.824219 L 2.65625 217.800781 C 2.65625 217.828125 2.628906 217.855469 2.628906 217.855469 L -8.453125 239.164062 C -8.882812 239.996094 -8.023438 240.90625 -7.246094 240.425781 C -3.273438 238.039062 3.539062 234.339844 3.515625 237.128906 C 3.488281 240.261719 -8.101562 256.507812 -12.691406 262.804688 C -13.226562 263.558594 -12.558594 264.574219 -11.726562 264.28125 C -7.378906 262.753906 0.429688 260.367188 -0.296875 263.367188 C -1.984375 270.257812 -8.800781 282.640625 -10.730469 286.046875 C -11.027344 286.582031 -10.785156 287.628906 -10.25 287.441406 C -5.042969 285.507812 1.476562 285.804688 4.480469 284.707031 C 5.042969 284.492188 5.632812 284.921875 5.660156 285.5625 L 6.0625 310.359375 C 6.0625 310.949219 6.574219 311.375 7.136719 311.242188 L 7.40625 311.269531 C 0.804688 311.832031 -5.125 312.207031 -10.007812 312.367188 C -12.984375 312.449219 -15.992188 312.339844 -19.023438 312.074219 C -18.621094 311.136719 -18.296875 310.089844 -18.136719 308.910156 C -18.082031 308.425781 -17.628906 304.273438 -20.230469 300.601562 C -22.054688 298 -23.34375 298.589844 -30.023438 294.140625 C -33.726562 291.460938 -34.261719 290.84375 -35.84375 290.816406 C -38.042969 290.761719 -39.304688 292.183594 -43.757812 295.800781 C -48.1875 299.421875 -50.414062 301.21875 -51.460938 301.621094 C -53.875 302.53125 -55.859375 302.34375 -57.683594 301.96875 C -73.78125 295.535156 -85.480469 288.511719 -85.480469 288.511719 L -85.453125 302.316406 C -85.453125 302.316406 -85.480469 302.316406 -85.480469 302.316406 L -85.371094 347.160156 L 414.003906 347.160156 Z M 326.675781 280.820312 C 327.695312 282.398438 337.703125 281.542969 341.269531 281.328125 C 341.78125 281.300781 342.234375 280.632812 341.886719 280.257812 C 337.515625 275.671875 331.613281 256.695312 332.230469 258.328125 C 332.65625 259.457031 337.753906 259.9375 341.457031 259.292969 C 341.539062 259.804688 342.019531 260.207031 342.613281 260.019531 C 346.957031 258.492188 354.765625 256.105469 354.039062 259.105469 C 352.351562 265.996094 345.535156 278.378906 343.605469 281.785156 C 343.308594 282.320312 343.550781 283.367188 344.085938 283.175781 C 349.292969 281.246094 355.8125 281.542969 358.816406 280.445312 C 359.378906 280.230469 359.96875 280.65625 359.996094 281.300781 L 360.320312 301.242188 C 347.011719 299.957031 333.035156 299.019531 326.703125 298.617188 C 326.191406 294.597656 325.628906 279.210938 326.675781 280.820312 Z M 326.675781 280.820312 " fill-opacity="1" fill-rule="nonzero"/></g><g clip-path="url(#88c9f9bdb4)"><g clip-path="url(#bb04949435)"><path fill="#022417" d="M 101.519531 344.601562 L 22.898438 344.601562 L 22.898438 263.070312 L 101.519531 263.070312 Z M 101.519531 344.601562 " fill-opacity="1" fill-rule="nonzero"/></g></g><g clip-path="url(#2526f18df8)"><g clip-path="url(#6a830280a8)"><path fill="#022417" d="M 350.046875 344.601562 L 276.929688 344.601562 L 276.929688 272.722656 L 350.046875 272.722656 Z M 350.046875 344.601562 " fill-opacity="1" fill-rule="nonzero"/></g></g><g clip-path="url(#6a5567482e)"><g clip-path="url(#2d630deff7)"><g clip-path="url(#8f67879f83)"><g clip-path="url(#bb5cbed489)"><path fill="#000000" d="M 176.902344 12.332031 C 157.261719 53.824219 137.597656 95.320312 117.9375 136.804688 C 90.523438 194.679688 63.101562 252.539062 35.683594 310.410156 C 27.308594 328.113281 18.917969 345.796875 10.542969 363.5 C 9.097656 366.554688 11.054688 368.9375 14.265625 368.914062 C 17.871094 368.894531 21.820312 365.988281 23.3125 362.828125 C 42.953125 321.332031 62.625 279.84375 82.277344 238.351562 C 109.691406 180.480469 137.113281 122.621094 164.527344 64.75 C 172.914062 47.050781 181.292969 29.363281 189.671875 11.660156 C 191.113281 8.605469 189.15625 6.21875 185.945312 6.246094 C 182.351562 6.269531 178.398438 9.1875 176.902344 12.332031 Z M 176.902344 12.332031 " fill-opacity="1" fill-rule="nonzero"/></g></g></g></g><g clip-path="url(#34c1ec0e4a)"><g clip-path="url(#e40d9e80b5)"><g clip-path="url(#ea4840e70e)"><g clip-path="url(#ae575371a7)"><path fill="#000000" d="M 351.8125 362.464844 C 331.683594 321.042969 311.53125 279.621094 291.382812 238.210938 C 263.285156 180.441406 235.183594 122.6875 207.085938 64.917969 C 198.5 47.246094 189.902344 29.59375 181.316406 11.921875 C 179.839844 8.871094 181.769531 6.464844 184.984375 6.460938 C 188.59375 6.445312 192.578125 9.324219 194.105469 12.476562 C 214.234375 53.898438 234.398438 95.3125 254.535156 136.730469 C 282.632812 194.5 310.734375 252.253906 338.832031 310.023438 C 347.425781 327.691406 356.015625 345.347656 364.601562 363.019531 C 366.082031 366.070312 364.148438 368.476562 360.933594 368.480469 C 357.335938 368.492188 353.34375 365.601562 351.8125 362.464844 Z M 351.8125 362.464844 " fill-opacity="1" fill-rule="nonzero"/></g></g></g></g><g clip-path="url(#8199a86a41)"><g clip-path="url(#6bf9dea5e3)"><g clip-path="url(#fb0093a7fb)"><g clip-path="url(#f07be6ac9e)"><g clip-path="url(#3148af7ed3)"><path fill="#000000" d="M 154.625 298.078125 C 155.132812 298.664062 155.761719 298.984375 156.515625 299.035156 C 157.269531 299.085938 157.9375 298.855469 158.523438 298.34375 C 159.097656 297.835938 159.40625 297.199219 159.457031 296.4375 C 159.511719 295.675781 159.289062 294.996094 158.789062 294.414062 C 158.28125 293.835938 157.644531 293.511719 156.890625 293.460938 C 156.136719 293.410156 155.46875 293.648438 154.886719 294.152344 C 154.3125 294.660156 154.003906 295.304688 153.953125 296.066406 C 153.902344 296.828125 154.125 297.5 154.625 298.078125 Z M 152.316406 291.257812 C 153.679688 290.050781 155.3125 289.503906 157.148438 289.625 C 158.933594 289.746094 160.445312 290.507812 161.644531 291.886719 C 162.839844 293.265625 163.382812 294.882812 163.257812 296.691406 C 163.132812 298.550781 162.378906 300.105469 161.011719 301.3125 C 159.640625 302.511719 158.039062 303.0625 156.253906 302.941406 C 154.417969 302.820312 152.875 302.058594 151.679688 300.683594 C 150.488281 299.308594 149.945312 297.664062 150.070312 295.804688 C 150.195312 293.992188 150.949219 292.464844 152.316406 291.257812 " fill-opacity="1" fill-rule="nonzero"/></g></g></g></g></g><g clip-path="url(#c031bda1ca)"><g clip-path="url(#aee80e82bd)"><g clip-path="url(#d927cb8122)"><g clip-path="url(#cf32f5890b)"><g clip-path="url(#a618ad2288)"><path fill="#000000" d="M 194.335938 300.921875 C 194.835938 301.507812 195.46875 301.8125 196.226562 301.863281 C 196.988281 301.914062 197.652344 301.695312 198.226562 301.183594 C 198.800781 300.667969 199.117188 300.039062 199.171875 299.265625 C 199.222656 298.503906 198.992188 297.835938 198.492188 297.25 C 197.992188 296.667969 197.363281 296.34375 196.601562 296.292969 C 195.839844 296.242188 195.171875 296.480469 194.597656 296.988281 C 194.023438 297.5 193.710938 298.132812 193.65625 298.894531 C 193.605469 299.667969 193.835938 300.335938 194.335938 300.921875 Z M 192.113281 294.054688 C 193.472656 292.878906 195.074219 292.339844 196.859375 292.460938 C 198.699219 292.585938 200.238281 293.335938 201.433594 294.679688 C 202.632812 296.042969 203.175781 297.671875 203.050781 299.523438 C 202.929688 301.328125 202.175781 302.859375 200.800781 304.066406 C 199.4375 305.277344 197.808594 305.832031 195.96875 305.707031 C 194.183594 305.589844 192.667969 304.820312 191.476562 303.445312 C 190.285156 302.058594 189.742188 300.449219 189.863281 298.636719 C 189.988281 296.785156 190.742188 295.242188 192.113281 294.054688 " fill-opacity="1" fill-rule="nonzero"/></g></g></g></g></g><g clip-path="url(#b8979ab513)"><g clip-path="url(#fed99e00d3)"><g clip-path="url(#8af31e236d)"><path fill="#000000" d="M 151.53125 283.058594 C 152.550781 283.128906 153.441406 282.339844 153.511719 281.304688 C 153.582031 280.269531 152.804688 279.371094 151.785156 279.300781 C 150.753906 279.230469 149.867188 280.019531 149.796875 281.054688 C 149.726562 282.089844 150.5 282.988281 151.53125 283.058594 Z M 162.507812 278.339844 C 162.457031 279.085938 163.011719 279.722656 163.746094 279.773438 L 172.976562 280.394531 C 173.707031 280.441406 174.339844 279.882812 174.390625 279.140625 L 174.75 273.773438 C 174.800781 273.027344 174.25 272.390625 173.519531 272.339844 L 164.285156 271.71875 C 163.550781 271.671875 162.917969 272.230469 162.867188 272.972656 Z M 177.074219 279.101562 C 177.003906 280.136719 177.484375 280.691406 178.515625 280.761719 L 187.648438 281.375 C 188.203125 281.414062 188.507812 281.152344 188.546875 280.589844 C 188.558594 280.390625 188.519531 280.230469 188.4375 280.085938 L 185.472656 273.949219 C 185.148438 273.34375 184.6875 273.136719 184.039062 273.09375 L 179.054688 272.757812 C 178.019531 272.6875 177.472656 273.171875 177.402344 274.207031 Z M 140.71875 290.796875 L 146.15625 273.5625 C 146.648438 272.027344 147.023438 270.339844 149.453125 268.445312 C 151.589844 266.777344 154.648438 267.0625 155.460938 267.117188 L 184.835938 269.09375 C 185.925781 269.167969 187.125 269.800781 187.597656 270.855469 L 193.152344 281.097656 L 204.507812 281.863281 C 207.101562 282.039062 209.078125 284.132812 208.914062 286.550781 L 208.867188 287.25 L 208.855469 287.246094 L 208.507812 292.402344 L 210.453125 292.535156 L 210.195312 296.394531 C 210.105469 297.753906 209.382812 298.390625 208.03125 298.296875 L 206.164062 298.171875 C 206.160156 295.871094 205.246094 293.847656 203.4375 292.105469 C 201.625 290.375 199.535156 289.417969 197.15625 289.257812 C 194.777344 289.097656 192.566406 289.765625 190.511719 291.238281 C 188.457031 292.71875 187.269531 294.601562 186.953125 296.878906 L 166.363281 295.496094 C 166.355469 293.195312 165.445312 291.15625 163.640625 289.386719 C 161.832031 287.621094 159.738281 286.664062 157.359375 286.503906 C 154.980469 286.34375 152.769531 287.011719 150.703125 288.515625 C 148.652344 290.027344 147.472656 291.921875 147.152344 294.203125 L 142.628906 293.898438 C 140.914062 293.714844 140.304688 292.34375 140.71875 290.796875 " fill-opacity="1" fill-rule="nonzero"/></g></g></g><g clip-path="url(#7b1a4fc894)"><g clip-path="url(#90cd43d7e9)"><g clip-path="url(#3b5ab92981)"><path fill="#000000" d="M 172.539062 259.984375 L 175.96875 259.191406 L 175.589844 257.511719 L 172.167969 258.308594 L 170.898438 252.59375 L 165.910156 266.160156 L 150.210938 265.121094 L 157.070312 249.242188 L 171.585938 243.308594 L 185.089844 251.042969 L 189.734375 267.738281 L 174.023438 266.699219 L 172.539062 259.984375 " fill-opacity="1" fill-rule="nonzero"/></g></g></g></svg>